<svg width="136" height="50" viewBox="0 0 136 50" fill="none" xmlns="http://www.w3.org/2000/svg">
<path fill-rule="evenodd" clip-rule="evenodd" d="M0 40.6679C32.3658 34.6546 49.8441 23.3398 74.2717 0H135.477L125.312 9.96671C124.477 10.7456 123.655 11.513 122.846 12.2692L122.103 12.9636C121.077 13.9223 115.79 18.5978 110.811 23.0008L110.808 23.0033L110.807 23.004C106.466 26.8432 102.36 30.4745 101.518 31.2528C100.771 31.8466 100.022 32.431 99.2682 33.0064C91.6944 38.7899 83.7121 43.662 73.5851 47.9518C71.9381 48.6495 70.2344 49.3317 68.4665 50L39.4195 46.4732L53.943 42.9463L39.4195 40.6679L25.104 44.6109L0 40.6679Z" fill="#6C47FF"/>
</svg>
